# xmcd
#
# Track frame offsets:
#	150
#	450
#	8493
#	15097
#	41939
#	61406
#	76822
#	94320
#	114340
#	122930
#	129940
#	134993
#	147099
#	172697
#	182242
#	190152
#	197523
#	216806
#	226512
#	257210
#	273373
#	291639
#	304004
#	312199
#	319266
#	327255
#	339401
#
# Disc length: 4629 seconds
#
# Revision: 1
# Processed by: cddbd v1.5.2PL0 Copyright (c) Steve Scherf et al.
# Submitted via: audiograbber 1.83.01
#
DISCID=7712131b
DTITLE=Rudyard KIPLING - 3 histoires comme ça
DYEAR=2008
DGENRE=AudioBook
TTITLE0=Rudyard Kipling - 3 histoires comme ça de Rudyard KIPLING
TTITLE1=Rudyard Kipling - Où est tu ? (chanson)
TTITLE2=Rudyard Kipling - Le chat qui faisait son chemin tout seul - Contine du
TTITLE2=chat
TTITLE3=Rudyard Kipling - Le chat qui faisait son chemin tout seul - Contine du
TTITLE3=chat
TTITLE4=Rudyard Kipling - Le chat qui faisait son chemin tout seul - Contine du
TTITLE4=chat
TTITLE5=Rudyard Kipling - Le chat qui faisait son chemin tout seul - Contine du
TTITLE5=chat
TTITLE6=Rudyard Kipling - Le chat qui faisait son chemin tout seul - Contine du
TTITLE6=chat
TTITLE7=Rudyard Kipling - Le chat qui faisait son chemin tout seul - Contine du
TTITLE7=chat
TTITLE8=Rudyard Kipling - Le chat qui faisait son chemin tout seul - Contine du
TTITLE8=chat
TTITLE9=Rudyard Kipling - Le chat qui faisait son chemin tout seul - Contine du
TTITLE9=chat
TTITLE10=Rudyard Kipling - Comment la baleine acquit ses fanons
TTITLE11=Rudyard Kipling - Comment la baleine acquit ses fanons
TTITLE12=Rudyard Kipling - Comment la baleine acquit ses fanons
TTITLE13=Rudyard Kipling - Comment la baleine acquit ses fanons
TTITLE14=Rudyard Kipling - Comment la baleine acquit ses fanons
TTITLE15=Rudyard Kipling - L'enfant d'éléphant
TTITLE16=Rudyard Kipling - L'enfant d'éléphant
TTITLE17=Rudyard Kipling - L'enfant d'éléphant
TTITLE18=Rudyard Kipling - L'enfant d'éléphant
TTITLE19=Rudyard Kipling - L'enfant d'éléphant
TTITLE20=Rudyard Kipling - L'enfant d'éléphant
TTITLE21=Rudyard Kipling - L'enfant d'éléphant
TTITLE22=Rudyard Kipling - Bonus - les chansons - Où es tu ? 
TTITLE23=Rudyard Kipling - Bonus - les chansons Bien avec toi
TTITLE24=Rudyard Kipling - Bonus - les chansons - Débrouille toi
TTITLE25=Rudyard Kipling - Bonus - les chansons Berceuse aux mystères
TTITLE26=Rudyard Kipling - Bonus - les chansons - Débrouille toi (V.I.)
EXTD=YEAR: 2008
EXTT0=
EXTT1=
EXTT2=
EXTT3=
EXTT4=
EXTT5=
EXTT6=
EXTT7=
EXTT8=
EXTT9=
EXTT10=
EXTT11=
EXTT12=
EXTT13=
EXTT14=
EXTT15=
EXTT16=
EXTT17=
EXTT18=
EXTT19=
EXTT20=
EXTT21=
EXTT22=
EXTT23=
EXTT24=
EXTT25=
EXTT26=
PLAYORDER=
